<?xml version="1.0" encoding="utf-8"?>
<svg version="1.1" width="1920" height="800" preserveAspectRatio="none" viewBox="0 0 1920 800" xmlns="http://www.w3.org/2000/svg">
  <g mask="url(#SvgjsMask11077)" fill="none">
    <rect width="151.8" height="151.8" clip-path="url(#SvgjsClipPath11078)" x="1230.73" y="664.86" fill="url(#SvgjsPattern11079)" transform="rotate(334.34, 1306.63, 740.76)"/>
    <circle r="61.304" cx="721.544" cy="233.694" fill="rgba(0, 240, 211, 1)" style=""/>
    <path d="M1715.93 777.98a5.6 5.6 0 1 0 0.55-11.19 5.6 5.6 0 1 0-0.55 11.19zM1716.72 762a5.6 5.6 0 1 0 0.54-11.19 5.6 5.6 0 1 0-0.54 11.19zM1717.5 746.01a5.6 5.6 0 1 0 0.55-11.18 5.6 5.6 0 1 0-0.55 11.18zM1718.28 730.03a5.6 5.6 0 1 0 0.55-11.18 5.6 5.6 0 1 0-0.55 11.18z" fill="rgba(0, 240, 211, 1)"/>
    <circle r="66.66666666666667" cx="261.15" cy="521.38" stroke="rgba(0, 240, 211, 1)" stroke-width="1.97" stroke-dasharray="2, 2"/>
    <path d="M1907.8400000000001 183.25 L1802.3000000000002 276.32L1785.9750085568942 160.69000855689404z" fill="rgba(0, 240, 211, 1)"/>
    <path d="M 509.32 130.68 C 513.627 130.892 516.548 126.361 514.578 122.526 C 513.664 120.745 511.869 119.588 509.87 119.49 C 505.563 119.278 502.642 123.808 504.612 127.644 C 505.527 129.424 507.321 130.582 509.32 130.68 Z M 510.11 114.7 C 514.417 114.908 517.334 110.375 515.361 106.541 C 514.445 104.762 512.649 103.606 510.65 103.51 C 506.343 103.302 503.426 107.835 505.4 111.669 C 506.316 113.448 508.111 114.603 510.11 114.7 Z M 510.89 98.71 C 515.186 99.068 518.259 94.641 516.421 90.742 C 515.51 88.808 513.578 87.562 511.44 87.53 C 507.144 87.172 504.072 91.598 505.91 95.498 C 506.821 97.431 508.753 98.678 510.89 98.71 Z M 511.67 82.73 C 515.966 83.088 519.039 78.661 517.201 74.762 C 516.29 72.828 514.358 71.582 512.22 71.55 C 507.924 71.192 504.852 75.618 506.69 79.518 C 507.601 81.451 509.533 82.698 511.67 82.73 Z" fill="rgba(0, 240, 211, 1)" transform="matrix(0, 1, -1, 0, 611.972759, -409.75597)"/>
    <path d="M 137.039 683.416 C 140.312 686.222 145.395 684.433 146.189 680.196 C 146.583 678.089 145.741 675.943 144.019 674.666 C 140.747 671.86 135.664 673.65 134.87 677.887 C 134.476 679.993 135.318 682.14 137.039 683.416 Z M 147.009 670.906 C 150.381 673.593 155.397 671.622 156.038 667.359 C 156.335 665.38 155.554 663.393 153.989 662.146 C 150.618 659.46 145.602 661.431 144.961 665.694 C 144.664 667.672 145.445 669.659 147.009 670.906 Z M 156.979 658.396 C 160.351 661.083 165.367 659.112 166.008 654.849 C 166.305 652.87 165.524 650.883 163.959 649.636 C 160.588 646.95 155.572 648.921 154.931 653.184 C 154.634 655.162 155.415 657.149 156.979 658.396 Z M 166.949 645.886 C 170.321 648.573 175.337 646.602 175.978 642.339 C 176.275 640.36 175.494 638.373 173.929 637.126 C 170.558 634.44 165.542 636.411 164.901 640.674 C 164.604 642.652 165.385 644.639 166.949 645.886 Z M 129.609 718.416 C 132.981 721.103 137.997 719.132 138.638 714.869 C 138.935 712.89 138.154 710.903 136.589 709.656 C 133.218 706.97 128.202 708.941 127.561 713.204 C 127.264 715.182 128.045 717.169 129.609 718.416 Z M 139.579 705.906 C 142.951 708.593 147.967 706.622 148.608 702.359 C 148.905 700.38 148.124 698.393 146.559 697.146 C 143.188 694.46 138.172 696.431 137.531 700.694 C 137.234 702.672 138.015 704.659 139.579 705.906 Z M 149.549 693.396 C 152.921 696.083 157.937 694.112 158.578 689.849 C 158.875 687.87 158.094 685.883 156.529 684.636 C 153.158 681.95 148.142 683.921 147.501 688.184 C 147.204 690.162 147.985 692.149 149.549 693.396 Z M 159.519 680.876 C 162.891 683.563 167.907 681.592 168.548 677.329 C 168.845 675.35 168.064 673.363 166.499 672.116 C 163.128 669.43 158.112 671.401 157.471 675.664 C 157.174 677.642 157.955 679.629 159.519 680.876 Z" stroke="rgba(0, 240, 211, 1)" stroke-width="1.32" stroke-dasharray="2, 2" transform="matrix(0, -1, 1, 0, -526.001835, 829.540829)"/>
  </g>
  <defs>
    <mask id="SvgjsMask11077">
      <rect width="1920" height="800" fill="#ffffff"/>
    </mask>
    <pattern x="0" y="0" width="6.9" height="6.9" patternUnits="userSpaceOnUse" id="SvgjsPattern11079">
      <path d="M0 6.9L3.45 0L6.9 6.9" stroke="rgba(0, 240, 211, 1)" fill="none"/>
    </pattern>
    <clipPath id="SvgjsClipPath11078">
      <circle r="37.95" cx="1306.63" cy="740.76"/>
    </clipPath>
    <mask id="mask-1">
      <rect width="1920" height="800" fill="#ffffff"/>
    </mask>
    <pattern x="0" y="0" width="10.8" height="10.8" patternUnits="userSpaceOnUse" id="SvgjsPattern11081">
      <path d="M0 10.8L5.4 0L10.8 10.8" stroke="rgba(0, 240, 211, 1)" fill="none"/>
    </pattern>
    <clipPath id="SvgjsClipPath11080">
      <circle r="59.400000000000006" cx="1137.73" cy="202.18"/>
    </clipPath>
    <pattern x="0" y="0" width="424.2" height="6.06" patternUnits="userSpaceOnUse" id="SvgjsPattern11083" patternTransform="matrix(1, 0, 0, 1, 0, 0)">
      <rect width="424.2" height="3.03" x="0" y="0" fill="rgba(0, 240, 211, 1)"/>
      <rect width="424.2" height="3.03" x="0" y="3.03" fill="rgba(0, 0, 0, 0)"/>
    </pattern>
    <clipPath id="SvgjsClipPath11082">
      <circle r="106.05" cx="186.48" cy="742.05"/>
    </clipPath>
  </defs>
  <g mask="url(#mask-1)" fill="none" transform="matrix(1, 0, 0, 1, 15.283475, -28.89365)">
    <circle r="77.108" cx="1510.304" cy="508.659" fill="rgba(0, 240, 211, 1)" style=""/>
    <path d="M535.68 268.13 L320.12 350.01L284.9921839380686 166.16218393806858z" fill="rgba(0, 240, 211, 1)"/>
    <rect width="237.60000000000002" height="237.60000000000002" clip-path="url(#SvgjsClipPath11080)" x="1018.93" y="83.38" fill="url(#SvgjsPattern11081)" transform="rotate(145.07, 1137.73, 202.18)"/>
    <rect width="424.2" height="424.2" clip-path="url(#SvgjsClipPath11082)" x="-25.62" y="529.95" fill="url(#SvgjsPattern11083)" transform="matrix(-0.159364, 0.98722, -0.98722, -0.159364, 1313.570435, 580.46637)"/>
    <circle r="66.66666666666667" cx="261.15" cy="521.38" stroke="rgba(0, 240, 211, 1)" stroke-width="1.97" stroke-dasharray="2, 2" transform="matrix(1, 0, 0, 1, 622.220205, 178.930344)"/>
  </g>
</svg>